<svg xmlns="http://www.w3.org/2000/svg" width="1200" height="700" viewBox="0 0 1200 700">
  <rect width="1200" height="700" fill="#0f172a"/>
  <rect x="80" y="80" width="1040" height="540" rx="24" fill="#111827" stroke="#1f2937"/>
  <text x="120" y="140" font-family="Arial, sans-serif" font-size="28" fill="#e5e7eb">Dispatch Monitoring</text>
  <text x="120" y="175" font-family="Arial, sans-serif" font-size="14" fill="#9ca3af">Live operations feed</text>

  <rect x="120" y="220" width="280" height="120" rx="16" fill="#1f2937" stroke="#334155"/>
  <text x="140" y="260" font-family="Arial, sans-serif" font-size="14" fill="#e5e7eb">Total Dispatches</text>
  <text x="140" y="300" font-family="Arial, sans-serif" font-size="32" fill="#fbbf24">1,234</text>

  <rect x="420" y="220" width="280" height="120" rx="16" fill="#1f2937" stroke="#334155"/>
  <text x="440" y="260" font-family="Arial, sans-serif" font-size="14" fill="#e5e7eb">Ongoing</text>
  <text x="440" y="300" font-family="Arial, sans-serif" font-size="32" fill="#38bdf8">92</text>

  <rect x="720" y="220" width="280" height="120" rx="16" fill="#1f2937" stroke="#334155"/>
  <text x="740" y="260" font-family="Arial, sans-serif" font-size="14" fill="#e5e7eb">Completed</text>
  <text x="740" y="300" font-family="Arial, sans-serif" font-size="32" fill="#34d399">641</text>

  <rect x="120" y="370" width="880" height="200" rx="16" fill="#0b1220" stroke="#1f2937"/>
  <text x="140" y="410" font-family="Arial, sans-serif" font-size="14" fill="#9ca3af">Live feed</text>
  <rect x="140" y="440" width="840" height="16" rx="8" fill="#1f2937"/>
  <rect x="140" y="470" width="780" height="16" rx="8" fill="#1f2937"/>
  <rect x="140" y="500" width="820" height="16" rx="8" fill="#1f2937"/>
</svg>
